<svg width="22" height="17" viewBox="0 0 22 17" fill="none" xmlns="http://www.w3.org/2000/svg">
<g clip-path="url(#clip0_2587_1599)">
<path d="M4.00422 16.4647V15.4016C4.00422 14.9939 3.75179 14.7282 3.33746 14.7282C3.11985 14.7282 2.887 14.7992 2.72467 15.0277C2.59845 14.8326 2.42001 14.7282 2.14799 14.7282C2.04686 14.7239 1.94622 14.7443 1.85507 14.7876C1.76393 14.8309 1.68513 14.8958 1.62572 14.9763V14.7624H1.2832V16.4634H1.62572V15.4901C1.62572 15.1907 1.80591 15.0473 2.05834 15.0473C2.31077 15.0473 2.45483 15.2069 2.45483 15.4901V16.4647H2.79735V15.4901C2.79735 15.1907 2.97753 15.0473 3.22996 15.0473C3.48239 15.0473 3.62645 15.2069 3.62645 15.4901V16.4647H4.00422ZM9.62819 14.7812H8.99712V14.2679H8.65546V14.7812H8.2951V15.0807H8.65546V15.8799C8.65546 16.2696 8.79952 16.5002 9.23214 16.5002C9.39603 16.4968 9.55662 16.4542 9.7 16.3761L9.59163 16.0766C9.49439 16.1364 9.38161 16.1671 9.26695 16.1652C9.08677 16.1652 8.99668 16.0587 8.99668 15.8816V15.067H9.62775V14.7834L9.62819 14.7812ZM12.8367 14.7282C12.7434 14.7261 12.6511 14.7479 12.569 14.7914C12.4868 14.8349 12.4175 14.8986 12.3679 14.9763V14.7624H12.0254V16.4634H12.3679V15.5081C12.3679 15.2244 12.512 15.0473 12.7466 15.0473C12.8257 15.0505 12.9043 15.0624 12.9807 15.0828L13.0891 14.7637C13.0064 14.7432 12.9218 14.7313 12.8367 14.7282ZM7.98783 14.9053C7.80765 14.7812 7.55522 14.7282 7.28494 14.7282C6.85233 14.7282 6.58206 14.9233 6.58206 15.26C6.58206 15.5436 6.78052 15.7027 7.15873 15.7562L7.33891 15.7738C7.53737 15.8093 7.66359 15.8803 7.66359 15.9688C7.66359 16.0929 7.51953 16.1827 7.24882 16.1827C7.04212 16.1869 6.83966 16.1247 6.67215 16.0056L6.49197 16.2713C6.7444 16.4484 7.05079 16.4852 7.23185 16.4852C7.73671 16.4852 8.00698 16.255 8.00698 15.9359C8.00698 15.6364 7.78937 15.4931 7.41203 15.4396L7.23185 15.4221C7.06951 15.4046 6.92719 15.3511 6.92719 15.245C6.92719 15.1209 7.07125 15.0311 7.26971 15.0311C7.48732 15.0311 7.70232 15.1196 7.81069 15.1727L7.98783 14.9053ZM13.2153 15.6142C13.2153 16.1276 13.5578 16.5002 14.1167 16.5002C14.3691 16.5002 14.5493 16.4471 14.7295 16.3051L14.5493 16.0394C14.4217 16.141 14.263 16.1972 14.0988 16.199C13.7942 16.199 13.5578 15.9688 13.5578 15.6321C13.5578 15.2955 13.7911 15.067 14.0988 15.067C14.263 15.0688 14.4217 15.125 14.5493 15.2266L14.7295 14.9609C14.5493 14.8193 14.3691 14.7658 14.1167 14.7658C13.5757 14.7303 13.2153 15.1025 13.2153 15.6163V15.6142ZM10.7998 14.7282C10.295 14.7282 9.95243 15.0824 9.95243 15.6142C9.95243 16.1459 10.3128 16.5002 10.8355 16.5002C11.0898 16.5055 11.3381 16.4241 11.5384 16.27L11.3582 16.0219C11.2134 16.1322 11.0365 16.1942 10.8533 16.199C10.6192 16.199 10.3668 16.0574 10.3311 15.7562H11.6111V15.6146C11.6111 15.0828 11.2864 14.7286 10.7998 14.7286V14.7282ZM10.782 15.0473C11.0344 15.0473 11.2146 15.2069 11.2324 15.4726H10.2954C10.3494 15.2244 10.513 15.0473 10.782 15.0473ZM6.11332 15.6142V14.7637H5.7708V14.9776C5.64458 14.818 5.46614 14.7295 5.21197 14.7295C4.72539 14.7295 4.36459 15.1017 4.36459 15.6155C4.36459 16.1293 4.72496 16.5015 5.21197 16.5015C5.4644 16.5015 5.64458 16.4129 5.7708 16.2533V16.4672H6.11332V15.6142ZM4.72539 15.6142C4.72539 15.295 4.92385 15.0473 5.26637 15.0473C5.59105 15.0473 5.78864 15.2955 5.78864 15.6142C5.78864 15.9509 5.57103 16.181 5.26637 16.181C4.92385 16.1986 4.72539 15.9329 4.72539 15.6142ZM18.0467 14.7282C17.9534 14.7261 17.8612 14.7479 17.779 14.7914C17.6969 14.8349 17.6276 14.8986 17.578 14.9763V14.7624H17.2355V16.4634H17.5776V15.5081C17.5776 15.2244 17.7216 15.0473 17.9562 15.0473C18.0354 15.0505 18.1139 15.0624 18.1904 15.0828L18.2987 14.7637C18.2161 14.7432 18.1315 14.7313 18.0463 14.7282H18.0467ZM16.7128 15.6142V14.7637H16.3702V14.9776C16.244 14.818 16.0656 14.7295 15.8114 14.7295C15.3248 14.7295 14.964 15.1017 14.964 15.6155C14.964 16.1293 15.3244 16.5015 15.8114 16.5015C16.0638 16.5015 16.244 16.4129 16.3702 16.2533V16.4672H16.7128V15.6142ZM15.3248 15.6142C15.3248 15.295 15.5233 15.0473 15.8658 15.0473C16.1905 15.0473 16.3881 15.2955 16.3881 15.6142C16.3881 15.9509 16.1705 16.181 15.8658 16.181C15.5233 16.1986 15.3248 15.9329 15.3248 15.6142ZM20.1919 15.6142V14.0903H19.8494V14.9763C19.7232 14.8167 19.5448 14.7282 19.2906 14.7282C18.804 14.7282 18.4432 15.1004 18.4432 15.6142C18.4432 16.128 18.8036 16.5002 19.2906 16.5002C19.543 16.5002 19.7232 16.4116 19.8494 16.252V16.4659H20.1919V15.6142ZM18.804 15.6142C18.804 15.295 19.0025 15.0473 19.345 15.0473C19.6697 15.0473 19.8673 15.2955 19.8673 15.6142C19.8673 15.9509 19.6497 16.181 19.345 16.181C19.002 16.199 18.8036 15.9333 18.8036 15.6142H18.804Z" fill="black"/>
<path d="M13.8459 1.86426H7.59082V11.8929H13.8459V1.86426Z" fill="#FF5F00"/>
<path d="M8.22196 6.87861C8.22218 5.91385 8.44443 4.96163 8.87209 4.09327C9.29974 3.2249 9.92171 2.46289 10.6914 1.86428C9.73418 1.12448 8.58449 0.664353 7.37376 0.536498C6.16304 0.408643 4.94015 0.61822 3.84488 1.14127C2.74961 1.66432 1.82616 2.47974 1.18009 3.49431C0.534023 4.50889 0.191406 5.68168 0.191406 6.87861C0.191406 8.07555 0.534023 9.24834 1.18009 10.2629C1.82616 11.2775 2.74961 12.0929 3.84488 12.616C4.94015 13.139 6.16304 13.3486 7.37376 13.2207C8.58449 13.0929 9.73418 12.6327 10.6914 11.8929C9.92171 11.2943 9.29974 10.5323 8.87209 9.66396C8.44443 8.79559 8.22218 7.84338 8.22196 6.87861Z" fill="#EB001B"/>
<path d="M21.2008 6.87877C21.2017 8.07483 20.8601 9.247 20.2151 10.2612C19.5701 11.2754 18.6477 12.0907 17.5534 12.6138C16.4592 13.1369 15.2373 13.3467 14.0274 13.2193C12.8175 13.0918 11.6685 12.6323 10.7119 11.8931C11.4818 11.2946 12.1039 10.5327 12.5316 9.66427C12.9593 8.79587 13.1814 7.84357 13.1814 6.87877C13.1814 5.91396 12.9593 4.96167 12.5316 4.09327C12.1039 3.22487 11.4818 2.46288 10.7119 1.86444C11.6685 1.12527 12.8175 0.665686 14.0274 0.538236C15.2373 0.410787 16.4592 0.620621 17.5534 1.14374C18.6477 1.66686 19.5701 2.48214 20.2151 3.49634C20.8601 4.51053 21.2017 5.6827 21.2008 6.87877Z" fill="#F79E1B"/>
</g>
<defs>
<clipPath id="clip0_2587_1599">
<rect width="21" height="16" fill="white" transform="translate(0.200195 0.5)"/>
</clipPath>
</defs>
</svg>
