<svg width="33" height="9" viewBox="0 0 33 9" fill="none" xmlns="http://www.w3.org/2000/svg">
<path fill-rule="evenodd" clip-rule="evenodd" d="M8.82317 0.5V0.503494C8.81921 0.503494 7.57323 0.5 7.24097 1.55153C6.9364 2.51572 6.07806 5.17772 6.05432 5.25108H5.81699C5.81699 5.25108 4.93887 2.52969 4.63035 1.54803C4.29808 0.496507 3.04815 0.5 3.04815 0.5H0.200195V8.49998H3.04815V3.7489H3.16681H3.28548L4.94678 8.49998H6.92453L8.58584 3.75239H8.82317V8.49998H11.6711V0.5H8.82317Z" fill="#4DB45E"/>
<path fill-rule="evenodd" clip-rule="evenodd" d="M19.2262 0.5C19.2262 0.5 18.3916 0.566375 18 1.33843L15.9827 5.25108H15.7454V0.5H12.8975V8.49998H15.5872C15.5872 8.49998 16.4614 8.43011 16.853 7.66155L18.8307 3.7489H19.068V8.49998H21.916V0.5H19.2262Z" fill="#4DB45E"/>
<path fill-rule="evenodd" clip-rule="evenodd" d="M23.1816 4.13281V8.49961H26.0296V5.9494H29.1149C30.4597 5.9494 31.5989 5.19133 32.0222 4.13281H23.1816Z" fill="#4DB45E"/>
<path fill-rule="evenodd" clip-rule="evenodd" d="M29.115 0.5H22.7822C23.0987 2.02314 24.3921 3.24584 26.0653 3.6441C26.445 3.73493 26.8445 3.78383 27.2559 3.78383H32.137C32.1805 3.60218 32.2002 3.41702 32.2002 3.22488C32.2002 1.71921 30.8198 0.5 29.115 0.5Z" fill="url(#paint0_linear_2587_956)"/>
<defs>
<linearGradient id="paint0_linear_2587_956" x1="22.783" y1="2.14192" x2="32.2002" y2="2.14192" gradientUnits="userSpaceOnUse">
<stop offset="0.3" stop-color="#00B4E6"/>
<stop offset="1" stop-color="#088CCB"/>
</linearGradient>
</defs>
</svg>
