<svg width="14" height="17" viewBox="0 0 14 17" fill="none" xmlns="http://www.w3.org/2000/svg">
<g clip-path="url(#clip0_2587_1447)">
<path d="M0.200195 3.7002L2.14778 7.37999V9.62455L0.202474 13.2971L0.200195 3.7002Z" fill="#5B57A2"/>
<path d="M7.67773 6.04101L9.50269 4.85866L13.2376 4.85498L7.67773 8.4553V6.04101Z" fill="#D90751"/>
<path d="M7.66741 3.67866L7.67773 8.55057L5.72559 7.28266V0L7.66741 3.67866Z" fill="#FAB718"/>
<path d="M13.2376 4.85506L9.50256 4.85874L7.66741 3.67866L5.72559 0L13.2376 4.85506Z" fill="#ED6F26"/>
<path d="M7.67773 13.3175V10.9538L5.72559 9.70996L5.72666 16.9998L7.67773 13.3175Z" fill="#63B22F"/>
<path d="M9.49855 12.1459L2.14765 7.37999L0.200195 3.7002L13.2301 12.1411L9.49855 12.1459Z" fill="#1487C9"/>
<path d="M5.72754 16.9999L7.67834 13.3175L9.49874 12.1459L13.2303 12.1411L5.72754 16.9999Z" fill="#017F36"/>
<path d="M0.202148 13.2973L5.74162 9.71029L3.87927 8.50244L2.14746 9.62473L0.202148 13.2973Z" fill="#984995"/>
</g>
<defs>
<clipPath id="clip0_2587_1447">
<rect width="13" height="17" fill="white" transform="translate(0.200195)"/>
</clipPath>
</defs>
</svg>
