<svg width="20" height="21" viewBox="0 0 20 21" fill="none" xmlns="http://www.w3.org/2000/svg">
<path d="M20 10.5C20 4.97714 15.5229 0.5 10 0.5C4.47714 0.499999 -1.95702e-07 4.97714 -4.37114e-07 10.5C-6.78524e-07 16.0228 4.47714 20.5 10 20.5C15.5229 20.5 20 16.0228 20 10.5ZM8.57143 11.9509L8.57143 4.37946C8.57143 3.82718 9.01914 3.37946 9.57143 3.37946L10 3.37946C10.5523 3.37946 11 3.82718 11 4.37946L11 9.5L16.1429 9.5C16.6951 9.5 17.1429 9.94771 17.1429 10.5L17.1429 10.9509C17.1429 11.5032 16.6951 11.9509 16.1429 11.9509L8.57143 11.9509Z" fill="#FFD151"/>
</svg>
