<svg width="20" height="21" viewBox="0 0 20 21" fill="none" xmlns="http://www.w3.org/2000/svg">
<path fill-rule="evenodd" clip-rule="evenodd" d="M20 10.5C20 16.0228 15.5228 20.5 10 20.5C4.47715 20.5 0 16.0228 0 10.5C0 4.97715 4.47715 0.5 10 0.5C15.5228 0.5 20 4.97715 20 10.5ZM14.8839 5.61612C15.372 6.10427 15.372 6.89573 14.8839 7.38388L11.7678 10.5L14.8839 13.6161C15.372 14.1043 15.372 14.8957 14.8839 15.3839C14.3957 15.872 13.6043 15.872 13.1161 15.3839L10 12.2678L6.88388 15.3839C6.39573 15.872 5.60427 15.872 5.11611 15.3839C4.62796 14.8957 4.62796 14.1043 5.11611 13.6161L8.23223 10.5L5.11611 7.38388C4.62796 6.89573 4.62796 6.10427 5.11611 5.61612C5.60427 5.12796 6.39572 5.12796 6.88388 5.61612L10 8.73223L13.1161 5.61612C13.6043 5.12796 14.3957 5.12796 14.8839 5.61612Z" fill="#FF4B55"/>
</svg>
