<svg width="20" height="21" viewBox="0 0 20 21" fill="none" xmlns="http://www.w3.org/2000/svg">
<path fill-rule="evenodd" clip-rule="evenodd" d="M10 20.5C15.5228 20.5 20 16.0228 20 10.5C20 4.97715 15.5228 0.5 10 0.5C4.47715 0.5 0 4.97715 0 10.5C0 16.0228 4.47715 20.5 10 20.5ZM16.0424 7.18983C16.4234 6.61412 16.2655 5.83857 15.6898 5.45758C15.1141 5.0766 14.3386 5.23446 13.9576 5.81017L9.41538 12.6739L5.77688 9.7874C5.23605 9.35835 4.4498 9.44895 4.02074 9.98979C3.59168 10.5306 3.68229 11.3169 4.22312 11.7459L8.929 15.4793L9.99639 16.3261L10.7483 15.1898L16.0424 7.18983Z" fill="#32FF7B"/>
</svg>
