<svg width="27" height="27" viewBox="0 0 27 27" fill="none" xmlns="http://www.w3.org/2000/svg">
<path opacity="0.4" fill-rule="evenodd" clip-rule="evenodd" d="M24 10.776C24 4.71 19.29 0 13.5 0C7.70999 0 3 4.71 3 10.5C1.2555 11.3955 0 13.044 0 15V18C0 19.1935 0.474105 20.3381 1.31802 21.182C2.16193 22.0259 3.30652 22.5 4.5 22.5H5.99999C6.39782 22.5 6.77935 22.342 7.06065 22.0607C7.34196 21.7794 7.49999 21.3978 7.49999 21V12C7.49999 11.6022 7.34196 11.2206 7.06065 10.9393C6.77935 10.658 6.39782 10.5 5.99999 10.5C5.99999 8.51088 6.79017 6.60322 8.19669 5.1967C9.60321 3.79018 11.5109 3 13.5 3C15.4891 3 17.3968 3.79018 18.8033 5.1967C20.2098 6.60322 21 8.51088 21 10.5C20.6022 10.5 20.2206 10.658 19.9393 10.9393C19.658 11.2206 19.5 11.6022 19.5 12V21C19.5 21.3978 19.658 21.7794 19.9393 22.0607C20.2206 22.342 20.6022 22.5 21 22.5V24H17.112C16.803 23.1285 15.978 22.5 15 22.5H12C11.4033 22.5 10.831 22.7371 10.409 23.159C9.98704 23.581 9.74999 24.1533 9.74999 24.75C9.74999 25.3467 9.98704 25.919 10.409 26.341C10.831 26.7629 11.4033 27 12 27H21C21.7956 27 22.5587 26.6839 23.1213 26.1213C23.6839 25.5587 24 24.7957 24 24V22.2255C24.8755 21.9178 25.6342 21.3462 26.1715 20.5895C26.7087 19.8328 26.9982 18.9281 27 18V15C26.9983 14.0721 26.7089 13.1675 26.1716 12.411C25.6343 11.6545 24.8755 11.0832 24 10.776L27 7.52885L24 10.776Z" fill="white"/>
</svg>
